<svg xmlns="http://www.w3.org/2000/svg" viewBox="0 0 700 341" role="img" aria-labelledby="title">
  <title id="title">Evgeny Andreichyk monogram</title>
  <metadata>
  Copyright © 2026 Evgeny Andreichyk. All rights reserved.
</metadata>
  <circle cx="83.5" cy="258.5" r="82.5" fill="#33A8E6"/>
  <path fill="#202020" d="M175 4h90v183h-90zM284 4h90v183h-90zM395 161h87v170h-87zM392 9C448 2 499 0 525 0c59 0 103 13 132 41 29 28 43 67 43 123v167h-86V178c0-42-6-70-21-84-15-14-40-23-72-24-34-1-77 2-124 9L392 9z"/>
</svg>
